ModelForces
version=1
nRows=4
nColumns=155
inDegrees=no

This file contains the forces exerted on a model during a simulation.

A force is a generalized force, meaning that it can be either a force (N) or a torque (Nm).

Units are S.I. units (second, meters, Newtons, ...)
Angles are in degrees.

endheader
time	glut_med1_r	glut_med2_r	glut_med3_r	glut_min1_r	glut_min2_r	glut_min3_r	semimem_r	semiten_r	bifemlh_r	bifemsh_r	sar_r	add_long_r	add_brev_r	add_mag1_r	add_mag2_r	add_mag3_r	tfl_r	pect_r	grac_r	glut_max1_r	glut_max2_r	glut_max3_r	iliacus_r	psoas_r	quad_fem_r	gem_r	peri_r	rect_fem_r	vas_med_r	vas_int_r	vas_lat_r	med_gas_r	lat_gas_r	soleus_r	tib_post_r	flex_dig_r	flex_hal_r	tib_ant_r	per_brev_r	per_long_r	per_tert_r	ext_dig_r	ext_hal_r	glut_med1_l	glut_med2_l	glut_med3_l	glut_min1_l	glut_min2_l	glut_min3_l	semimem_l	semiten_l	bifemlh_l	bifemsh_l	sar_l	add_long_l	add_brev_l	add_mag1_l	add_mag2_l	add_mag3_l	tfl_l	pect_l	grac_l	glut_max1_l	glut_max2_l	glut_max3_l	iliacus_l	psoas_l	quad_fem_l	gem_l	peri_l	rect_fem_l	vas_med_l	vas_int_l	vas_lat_l	med_gas_l	lat_gas_l	soleus_l	tib_post_l	flex_dig_l	flex_hal_l	tib_ant_l	per_brev_l	per_long_l	per_tert_l	ext_dig_l	ext_hal_l	ercspn_r	ercspn_l	intobl_r	intobl_l	extobl_r	extobl_l	femur_lat_meniscii_r.femur_lat_r.force.X	femur_lat_meniscii_r.femur_lat_r.force.Y	femur_lat_meniscii_r.femur_lat_r.force.Z	femur_lat_meniscii_r.femur_lat_r.torque.X	femur_lat_meniscii_r.femur_lat_r.torque.Y	femur_lat_meniscii_r.femur_lat_r.torque.Z	femur_lat_meniscii_r.meniscus_lat_r.force.X	femur_lat_meniscii_r.meniscus_lat_r.force.Y	femur_lat_meniscii_r.meniscus_lat_r.force.Z	femur_lat_meniscii_r.meniscus_lat_r.torque.X	femur_lat_meniscii_r.meniscus_lat_r.torque.Y	femur_lat_meniscii_r.meniscus_lat_r.torque.Z	femur_med_meniscii_r.femur_med_r.force.X	femur_med_meniscii_r.femur_med_r.force.Y	femur_med_meniscii_r.femur_med_r.force.Z	femur_med_meniscii_r.femur_med_r.torque.X	femur_med_meniscii_r.femur_med_r.torque.Y	femur_med_meniscii_r.femur_med_r.torque.Z	femur_med_meniscii_r.meniscus_med_r.force.X	femur_med_meniscii_r.meniscus_med_r.force.Y	femur_med_meniscii_r.meniscus_med_r.force.Z	femur_med_meniscii_r.meniscus_med_r.torque.X	femur_med_meniscii_r.meniscus_med_r.torque.Y	femur_med_meniscii_r.meniscus_med_r.torque.Z	femur_med_tibia_r.tibia_upper_r.force.X	femur_med_tibia_r.tibia_upper_r.force.Y	femur_med_tibia_r.tibia_upper_r.force.Z	femur_med_tibia_r.tibia_upper_r.torque.X	femur_med_tibia_r.tibia_upper_r.torque.Y	femur_med_tibia_r.tibia_upper_r.torque.Z	femur_med_tibia_r.femur_med_r.force.X	femur_med_tibia_r.femur_med_r.force.Y	femur_med_tibia_r.femur_med_r.force.Z	femur_med_tibia_r.femur_med_r.torque.X	femur_med_tibia_r.femur_med_r.torque.Y	femur_med_tibia_r.femur_med_r.torque.Z	femur_lat_tibia_r.tibia_upper_r.force.X	femur_lat_tibia_r.tibia_upper_r.force.Y	femur_lat_tibia_r.tibia_upper_r.force.Z	femur_lat_tibia_r.tibia_upper_r.torque.X	femur_lat_tibia_r.tibia_upper_r.torque.Y	femur_lat_tibia_r.tibia_upper_r.torque.Z	femur_lat_tibia_r.femur_lat_r.force.X	femur_lat_tibia_r.femur_lat_r.force.Y	femur_lat_tibia_r.femur_lat_r.force.Z	femur_lat_tibia_r.femur_lat_r.torque.X	femur_lat_tibia_r.femur_lat_r.torque.Y	femur_lat_tibia_r.femur_lat_r.torque.Z	aACL_R	pACL_R	aPCL_R	pPCL_R	aMCL_R	mMCL_R	pMCL_R	aLCL_R	mLCL_R	pLCL_R	aPCL_L	pPCL_L	aMCL_L	aLCL_L
      0.14163581	     12.55801135	      9.29440764	     10.00918691	      4.27273721	      4.93859308	      5.43169578	     83.52781674	    151.12833796	    218.51482353	    362.34870842	    119.91485797	      9.26158436	      6.62527460	      0.00000000	      4.05970458	      6.89674173	      4.51189328	      3.60921181	     91.43169555	      6.00422888	      9.13606819	      6.87669020	     29.30015290	     20.52869456	      5.88854307	      3.94550437	      6.34119020	     41.57064747	     30.97253975	     33.87501285	     47.37264701	      0.00000000	      0.00000000	      0.00000000	      0.00000000	      0.00000000	      0.00000000	     31.78845336	      0.78920031	      0.00000000	     16.42652902	     25.40018140	      7.18341176	     12.55801135	      9.29440764	     10.00918691	      4.27273721	      4.93859308	      5.43169578	      0.00000000	      6.93263590	     13.51976020	     11.72198760	      2.43675232	      9.26158436	      6.62527460	      0.00000000	      4.05970458	      6.89674173	      5.89310926	      3.60921181	      2.52003459	      6.00422888	      9.13606819	      6.87669020	     29.30015290	     20.52869456	      5.88854307	      3.94550437	      6.34119020	     19.18435929	      0.00000000	      0.00000000	      0.00000000	     21.30649030	     10.17180108	     55.13824965	     53.60724200	      5.95023244	      5.30766516	     14.76575218	      7.96292128	     19.73597100	      3.17275018	     10.30878448	      3.25741587	     40.22718733	     40.22718733	     15.06872557	     15.06872557	     32.28749665	     32.28749665	    -18.28957241	    193.54147305	     25.81615132	    -15.10682278	     -0.33493891	     -8.57982695	     18.28957241	   -193.54147305	    -25.81615132	      5.59652372	     -0.11049065	      5.18155857	     20.23063344	     40.20505636	      1.05921603	      0.38092711	     -0.37770015	      7.87927281	    -20.23063344	    -40.20505636	     -1.05921603	     -0.69674496	      0.31105471	      0.68241695	    -17.18414929	   -469.25303043	     94.24347717	     -9.21079689	      2.47704845	     10.85589981	     17.18414929	    469.25303043	    -94.24347717	     46.63940902	     -0.73667081	      4.63436418	     22.52489435	   -340.66480298	    -66.77628901	     10.34170326	     -1.02707654	      8.73985096	    -22.52489435	    340.66480298	     66.77628901	    -35.30988103	     -0.18221062	    -10.99280627	     46.41771264	     -8.51218436	      0.00000000	      0.00000000	      0.00000000	      0.00000000	      0.00000000	      0.00000000	      0.00000000	      0.00000000	      0.00000000	      0.00000000	      0.00000001	      0.00000000
      0.14200282	     12.54168553	      9.27677067	      9.98997856	      4.26495139	      4.93004924	      5.42093665	     82.78836851	    150.77357773	    217.52976089	    361.84940502	    119.81786877	      9.24381387	      6.61331349	      0.00000000	      4.05192684	      6.88259343	      4.51629077	      3.60258900	     91.28424719	      5.99277722	      9.11860748	      6.86336069	     29.26748612	     20.49143401	      5.87758748	      3.94010485	      6.34322065	     41.69170089	     30.93295943	     33.83703243	     47.31879600	      0.00000000	      0.00000000	      0.00000000	      0.00000000	      0.00000000	      0.00000000	     31.89909271	      0.79229667	      0.00000000	     15.52870406	     25.56421320	      7.22953862	     12.54168553	      9.27677067	      9.98997856	      4.26495139	      4.93004924	      5.42093665	      0.00000000	      6.91871995	     13.49839629	     11.70014330	      2.43233262	      9.24381387	      6.61331349	      0.00000000	      4.05192684	      6.88259343	      5.88445957	      3.60258900	      2.51538456	      5.99277722	      9.11860748	      6.86336069	     29.26748612	     20.49143401	      5.87758748	      3.94010485	      6.34322065	     19.14452792	      0.00000000	      0.00000000	      0.00000000	     21.31504301	     10.17250143	     55.07523367	     53.56158757	      5.94081757	      5.29941390	     14.73939213	      7.94724401	     19.71022029	      3.16701595	     10.27828472	      3.24687888	     40.15372382	     40.15372382	     15.03910957	     15.03910957	     32.26050929	     32.26050929	    -17.38361356	    193.57160448	     25.64464664	    -15.03690860	     -0.31222195	     -8.20924516	     17.38361356	   -193.57160448	    -25.64464664	      5.59067880	     -0.13295466	      5.16626861	     19.72226931	     39.06110429	      1.00528001	      0.37916278	     -0.36729650	      7.68058711	    -19.72226931	    -39.06110429	     -1.00528001	     -0.67720773	      0.30300571	      0.66474111	    -17.42865806	   -467.83915885	     94.55203464	     -9.18934485	      2.49227736	     10.83672279	     17.42865806	    467.83915885	    -94.55203464	     46.73007124	     -0.74378135	      4.73459085	     22.42479991	   -337.90903968	    -66.00217872	     10.24206483	     -1.01682844	      8.69842088	    -22.42479991	    337.90903968	     66.00217872	    -34.92199949	     -0.18016128	    -10.95545165	     45.18615532	     -9.18696513	      0.00000000	      0.00000000	      0.00000000	      0.00000000	      0.00000000	      0.00000000	      0.00000000	      0.00000000	      0.00000000	      0.00000000	      0.00000001	      0.00000000
      0.14255485	     12.51683285	      9.25040697	      9.96126605	      4.25331243	      4.91727792	      5.40484368	     81.65534924	    150.23592420	    216.05665831	    361.04666808	    119.66657290	      9.21725108	      6.59543259	      0.00000000	      4.04029534	      6.86144192	      4.52321559	      3.59268846	     91.05864163	      5.97565982	      9.09250818	      6.84343659	     29.21866140	     20.43574290	      5.86121015	      3.93203474	      6.34585150	     41.87049869	     30.85885187	     33.77038820	     47.22532636	      0.00000000	      0.00000000	      0.00000000	      0.00000000	      0.00000000	      0.00000000	     32.06427350	      0.79634295	      0.00000000	      2.76484323	     25.81274185	      7.29935928	     12.51683285	      9.25040697	      9.96126605	      4.25331243	      4.91727792	      5.40484368	      0.00000000	      6.89791895	     13.46621560	     11.66748991	      2.42572558	      9.21725108	      6.59543259	      0.00000000	      4.04029534	      6.86144192	      5.87152529	      3.59268846	      2.50843344	      5.97565982	      9.09250818	      6.84343659	     29.21866140	     20.43574290	      5.86121015	      3.93203474	      6.34585150	     19.08493545	      0.00000000	      0.00000000	      0.00000000	     21.32682258	     10.17312571	     54.97973363	     53.49307713	      5.92686884	      5.28723396	     14.69980401	      7.92374851	     19.67148801	      3.15844510	     10.23271319	      3.23117438	     40.04390432	     40.04390432	     14.99484082	     14.99484082	     32.22017457	     32.22017457	    -17.22558721	    193.54391322	     25.78000047	    -15.09134693	     -0.30879309	     -8.16214702	     17.22558721	   -193.54391322	    -25.78000047	      5.58960368	     -0.14063790	      5.18741955	     18.81676723	     37.17831916	      0.86792685	      0.39776906	     -0.34912206	      7.32522098	    -18.81676723	    -37.17831916	     -0.86792685	     -0.64772683	      0.28975145	      0.63708204	    -16.67039714	   -465.66315407	     94.68281859	     -9.14499058	      2.49349856	     10.84353144	     16.67039714	    465.66315407	    -94.68281859	     46.72560784	     -0.73659070	      4.41384145	     21.90229193	   -333.51724244	    -65.76513708	     10.12005843	     -1.03265998	      8.61690895	    -21.90229193	    333.51724244	     65.76513708	    -34.72455534	     -0.16411420	    -10.74189576	     43.24553405	    -10.25881914	      0.00000000	      0.00000000	      0.00000000	      0.00000000	      0.00000000	      0.00000000	      0.00000000	      0.00000000	      0.00000000	      0.00000000	      0.00000001	      0.00000000
      0.14303317	     12.49502767	      9.22772270	      9.93656090	      4.24329717	      4.90628900	      5.39098717	     80.64943351	    149.76075384	    214.77390168	    360.27154078	    119.52762604	      9.19439598	      6.58004582	      0.00000000	      4.03028230	      6.84323993	      4.52936726	      3.58416899	     90.85646833	      5.96093191	      9.07005232	      6.82629398	     29.17665618	     20.38782997	      5.84711764	      3.92509197	      6.34773065	     42.02665205	     30.82255705	     33.72768149	     47.15397265	      0.00000000	      0.00000000	      0.00000000	      0.00000000	      0.00000000	      0.00000000	     32.21151469	      0.79946987	      0.00000000	     16.24810123	     26.03089323	      7.36126329	     12.49502767	      9.22772270	      9.93656090	      4.24329717	      4.90628900	      5.39098717	      0.00000000	      6.88002154	     13.43829265	     11.63939322	      2.42004020	      9.19439598	      6.58004582	      0.00000000	      4.03028230	      6.84323993	      5.86039172	      3.58416899	      2.50245219	      5.96093191	      9.07005232	      6.82629398	     29.17665618	     20.38782997	      5.84711764	      3.92509197	      6.34773065	     19.03361019	      0.00000000	      0.00000000	      0.00000000	     21.33599666	     10.17326287	     54.89631210	     53.43387495	      5.91497945	      5.27689350	     14.66556620	      7.90347418	     19.63793203	      3.15107108	     10.19353505	      3.21771034	     39.94940554	     39.94940554	     14.95675156	     14.95675156	     32.18547481	     32.18547481	    -17.45598897	    194.08348278	     25.79911542	    -15.11038718	     -0.31462531	     -8.27703602	     17.45598897	   -194.08348278	    -25.79911542	      5.59967939	     -0.13577561	      5.23028692	     18.56670276	     35.09813352	      0.88929881	      0.34328533	     -0.34685452	      7.24150703	    -18.56670276	    -35.09813352	     -0.88929881	     -0.60669636	      0.28785867	      0.58636623	    -16.63100335	   -463.45603317	     94.86104638	     -9.10506351	      2.50301254	     10.82001808	     16.63100335	    463.45603317	    -94.86104638	     46.74449913	     -0.73908675	      4.39680364	     21.42807086	   -329.76947585	    -64.50408913	      9.97885718	     -1.02096106	      8.54691011	    -21.42807086	    329.76947585	     64.50408913	    -34.11056467	     -0.15553344	    -10.54870510	     41.41524467	    -11.27989927	      0.00000000	      0.00000000	      0.00000000	      0.00000000	      0.00000000	      0.00000000	      0.00000000	      0.00000000	      0.00000000	      0.00000000	      0.00000001	      0.00000000
